<?xml version="1.0" encoding="UTF-8" standalone="no"?>
<!-- Created with Inkscape (http://www.inkscape.org/) -->

<svg
   xmlns:dc="http://purl.org/dc/elements/1.1/"
   xmlns:cc="http://creativecommons.org/ns#"
   xmlns:rdf="http://www.w3.org/1999/02/22-rdf-syntax-ns#"
   xmlns:svg="http://www.w3.org/2000/svg"
   xmlns="http://www.w3.org/2000/svg"
   xmlns:sodipodi="http://sodipodi.sourceforge.net/DTD/sodipodi-0.dtd"
   xmlns:inkscape="http://www.inkscape.org/namespaces/inkscape"
   id="svg5685"
   version="1.1"
   inkscape:version="0.91 r13725"
   width="918.30585"
   height="946.89258"
   viewBox="0 0 918.30585 946.89258"
   sodipodi:docname="rocket.svg">
  <metadata
     id="metadata5691">
    <rdf:RDF>
      <cc:Work
         rdf:about="">
        <dc:format>image/svg+xml</dc:format>
        <dc:type
           rdf:resource="http://purl.org/dc/dcmitype/StillImage" />
        <dc:title></dc:title>
      </cc:Work>
    </rdf:RDF>
  </metadata>
  <defs
     id="defs5689" />
  <sodipodi:namedview
     pagecolor="#ffffff"
     bordercolor="#666666"
     borderopacity="1"
     objecttolerance="10"
     gridtolerance="10"
     guidetolerance="10"
     inkscape:pageopacity="0"
     inkscape:pageshadow="2"
     inkscape:window-width="1920"
     inkscape:window-height="1016"
     id="namedview5687"
     showgrid="false"
     inkscape:zoom="2.6166667"
     inkscape:cx="953.09094"
     inkscape:cy="608.88635"
     inkscape:window-x="0"
     inkscape:window-y="27"
     inkscape:window-maximized="1"
     inkscape:current-layer="svg5685"
     showguides="false"
     fit-margin-top="0"
     fit-margin-left="0"
     fit-margin-right="0"
     fit-margin-bottom="0" />
  <g
     transform="translate(-1269.8664,-132.29672)"
     id="g7297">
    <path
       inkscape:connector-curvature="0"
       style="opacity:1;fill:#fffffb;fill-opacity:1;stroke:none;stroke-width:0.60000002;stroke-linecap:round;stroke-linejoin:round;stroke-miterlimit:4;stroke-dasharray:none;stroke-dashoffset:0;stroke-opacity:1"
       d="m 2084.2608,188.73436 c -9.5453,9.33333 -12.4199,18.08244 -12.4199,28 l 0,120.71875 24.8418,0 0,-120.71875 c 0,-9.91756 -2.8766,-18.66667 -12.4219,-28 z"
       id="path7299" />
    <path
       inkscape:connector-curvature="0"
       style="fill:#f6e9e0;fill-opacity:1;fill-rule:evenodd;stroke:none;stroke-width:1px;stroke-linecap:butt;stroke-linejoin:miter;stroke-opacity:1"
       d="m 2084.2617,188.73438 0,148.71874 10.5625,0 1.8594,-5.24804 0,-115.4707 c 0,-9.91757 -2.8766,-18.66668 -12.4219,-28 z"
       id="path7301" />
    <path
       inkscape:connector-curvature="0"
       id="path7303"
       d="m 2084.2539,188.67969 a 0.05342523,0.05342523 0 0 0 0,0.002 0.05342523,0.05342523 0 0 0 -0.025,0.0137 c -1.6669,1.6299 -3.1195,3.24175 -4.4004,4.84571 a 0.05342523,0.05342523 0 0 0 0.041,0.0859 l 8.793,0 a 0.05342523,0.05342523 0 0 0 0.041,-0.0859 c -1.2809,-1.60395 -2.7334,-3.21581 -4.4004,-4.84571 a 0.05342523,0.05342523 0 0 0 -0.039,-0.0156 0.05342523,0.05342523 0 0 0 -0.01,0 z m -4.7637,5.29492 a 0.05342523,0.05342523 0 0 0 -0.033,0.0195 c -0.1081,0.13901 -0.2015,0.27633 -0.3047,0.41211 a 0.05342523,0.05342523 0 0 0 0.043,0.0859 l 10.1328,0 a 0.05342523,0.05342523 0 0 0 0.043,-0.0859 c -0.103,-0.13571 -0.1966,-0.27317 -0.3047,-0.41211 a 0.05342523,0.05342523 0 0 0 -0.043,-0.0195 l -9.5234,0 a 0.05342523,0.05342523 0 0 0 -0.01,0 z m -1.9843,2.79492 a 0.05342523,0.05342523 0 0 0 -0.035,0.0234 c -0.5165,0.79142 -1.0033,1.58275 -1.4395,2.375 a 0.05342523,0.05342523 0 0 0 0.047,0.0781 l 16.3672,0 a 0.05342523,0.05342523 0 0 0 0.047,-0.0781 c -0.4362,-0.79218 -0.9209,-1.58352 -1.4375,-2.375 a 0.05342523,0.05342523 0 0 0 -0.045,-0.0234 l -13.4942,0 a 0.05342523,0.05342523 0 0 0 -0.01,0 z m -5.6621,19.34766 a 0.05342523,0.05342523 0 0 0 -0.043,0.0527 c 0,0.18321 -0.012,0.36619 -0.012,0.55469 a 0.05342523,0.05342523 0 0 0 0.053,0.0527 l 24.8418,0 a 0.05342523,0.05342523 0 0 0 0.053,-0.0527 c 0,-0.18812 -0.01,-0.37072 -0.012,-0.55469 a 0.05342523,0.05342523 0 0 0 -0.053,-0.0527 l -24.8184,0 a 0.05342523,0.05342523 0 0 0 -0.01,0 z m -0.012,1.05078 a 0.05342523,0.05342523 0 0 0 -0.043,0.0527 l 0,2.3711 a 0.05342523,0.05342523 0 0 0 0.053,0.0527 l 24.8418,0 a 0.05342523,0.05342523 0 0 0 0.053,-0.0527 l 0,-2.3711 a 0.05342523,0.05342523 0 0 0 -0.053,-0.0527 l -24.8418,0 a 0.05342523,0.05342523 0 0 0 -0.01,0 z m 0,2.86523 a 0.05342523,0.05342523 0 0 0 -0.043,0.0527 l 0,0.55664 a 0.05342523,0.05342523 0 0 0 0.053,0.0527 l 24.8418,0 a 0.05342523,0.05342523 0 0 0 0.053,-0.0527 l 0,-0.55664 a 0.05342523,0.05342523 0 0 0 -0.053,-0.0527 l -24.8418,0 a 0.05342523,0.05342523 0 0 0 -0.01,0 z m 0,47.80274 a 0.05342523,0.05342523 0 0 0 -0.043,0.0527 l 0,14.53125 a 0.05342523,0.05342523 0 0 0 0.053,0.0527 l 24.8418,0 a 0.05342523,0.05342523 0 0 0 0.053,-0.0527 l 0,-14.53125 a 0.05342523,0.05342523 0 0 0 -0.053,-0.0527 l -24.8418,0 a 0.05342523,0.05342523 0 0 0 -0.01,0 z m 0,19.32226 a 0.05342523,0.05342523 0 0 0 -0.043,0.0527 l 0,4.26172 a 0.05342523,0.05342523 0 0 0 0.053,0.0527 l 24.8418,0 a 0.05342523,0.05342523 0 0 0 0.053,-0.0527 l 0,-4.26172 a 0.05342523,0.05342523 0 0 0 -0.053,-0.0527 l -24.8418,0 a 0.05342523,0.05342523 0 0 0 -0.01,0 z"
       style="opacity:1;fill:#5b4047;fill-opacity:1;stroke:#5b4047;stroke-width:0.1;stroke-linecap:round;stroke-linejoin:round;stroke-miterlimit:4;stroke-dasharray:none;stroke-dashoffset:0;stroke-opacity:1" />
    <path
       sodipodi:nodetypes="cccccccccc"
       style="fill:#fff7ea;fill-opacity:1;fill-rule:evenodd;stroke:none;stroke-width:1px;stroke-linecap:butt;stroke-linejoin:miter;stroke-opacity:1"
       d="m 2080.8976,364.42465 -6.9239,0.69081 -4.505,5.99922 14.6465,0 0.2971,0 14.643,0 -4.7602,-6.01216 -4.2285,-2.21285 -5.8027,-0.19565 z"
       id="path7305"
       inkscape:connector-curvature="0" />
    <path
       inkscape:connector-curvature="0"
       id="path7307"
       d="m 2068.4835,336.76618 0,24.70234 8.3669,0 0.6117,0 0,0.0373 -3.532,3.6105 20.4146,0 -3.508,-3.58466 0,-0.0632 9.2034,0 0,-24.70234 -31.5566,0 z m 0.9711,34.32267 0,1.56417 29.6144,0 0,-1.56417 -29.6144,0 z"
       style="opacity:1;fill:#b71c1c;fill-opacity:1;stroke:none;stroke-width:50;stroke-linecap:round;stroke-linejoin:round;stroke-miterlimit:4;stroke-dasharray:none;stroke-dashoffset:0;stroke-opacity:1" />
    <path
       inkscape:connector-curvature="0"
       id="path7309"
       d="m 2068.4835,349.98841 0,5.61663 31.5566,0 0,-5.61663 -31.5566,0 z m 8.9855,11.51167 -1.3062,1.33458 15.9492,0 -1.3062,-1.33458 -13.3368,0 z"
       style="opacity:1;fill:#6e1a23;fill-opacity:1;stroke:none;stroke-width:50;stroke-linecap:round;stroke-linejoin:round;stroke-miterlimit:4;stroke-dasharray:none;stroke-dashoffset:0;stroke-opacity:1" />
  </g>
  <g
     style="opacity:1;fill:#ffcc00"
     transform="translate(-1681.1854,-133.10742)"
     id="g6528">
    <path
       id="path6530"
       transform="translate(679.49045,0)"
       d="m 1774.6133,384.15234 a 10.539043,10.539043 0 0 0 -10.5391,10.53907 10.539043,10.539043 0 0 0 0.01,0.28906 18.375769,18.375769 0 0 0 -17.8457,18.35742 18.375769,18.375769 0 0 0 0.7676,5.21094 27.833885,27.833885 0 0 0 -18.3321,26.13672 27.833885,27.833885 0 0 0 14.4649,24.3789 55.031849,55.031849 0 0 0 -47.8535,54.50196 55.031849,55.031849 0 0 0 55.0332,55.0332 55.031849,55.031849 0 0 0 55.0312,-55.0332 55.031849,55.031849 0 0 0 -39.4355,-52.73438 27.833885,27.833885 0 0 0 10.4511,-6.68164 25.942261,25.942261 0 0 0 21.2168,11.07031 25.942261,25.942261 0 0 0 25.9434,-25.9414 25.942261,25.942261 0 0 0 -22.8301,-25.73438 17.835304,17.835304 0 0 0 0.4004,-3.7207 17.835304,17.835304 0 0 0 -17.8359,-17.83594 17.835304,17.835304 0 0 0 -1.0957,0.0391 10.539043,10.539043 0 0 0 2.9882,-7.33593 10.539043,10.539043 0 0 0 -10.539,-10.53907 z m -81.791,111.13477 a 6.0191135,6.0191135 0 0 0 -6.0176,6.01758 6.0191135,6.0191135 0 0 0 6.0176,6.01953 6.0191135,6.0191135 0 0 0 6.0195,-6.01953 6.0191135,6.0191135 0 0 0 -6.0195,-6.01758 z m 156.6894,7.45117 a 6.0191135,6.0191135 0 0 0 -6.0195,6.01953 6.0191135,6.0191135 0 0 0 6.0195,6.01953 6.0191135,6.0191135 0 0 0 6.0176,-6.01953 6.0191135,6.0191135 0 0 0 -6.0176,-6.01953 z m -7.5488,39.17188 a 11.082808,11.082808 0 0 0 -11.082,11.08398 11.082808,11.082808 0 0 0 11.082,11.08203 11.082808,11.082808 0 0 0 11.084,-11.08203 11.082808,11.082808 0 0 0 -11.084,-11.08398 z m -148.6621,26.75195 a 25.987263,25.987263 0 0 0 -25.9863,25.98828 25.987263,25.987263 0 0 0 3.4355,12.84961 35.923569,35.923569 0 0 0 -9.0938,23.83789 35.923569,35.923569 0 0 0 1.8282,11.17383 25.987263,25.987263 0 0 0 -16.043,23.98437 25.987263,25.987263 0 0 0 25.9863,25.98829 25.987263,25.987263 0 0 0 25.9532,-25.28711 35.923569,35.923569 0 0 0 34.1211,-35.85938 35.923569,35.923569 0 0 0 -15.2813,-29.37695 25.987263,25.987263 0 0 0 1.0664,-7.31055 25.987263,25.987263 0 0 0 -25.9863,-25.98828 z m -50.1387,31.02344 a 5.7488828,5.7488828 0 0 0 -5.75,5.74804 5.7488828,5.7488828 0 0 0 5.75,5.75 5.7488828,5.7488828 0 0 0 5.7481,-5.75 5.7488828,5.7488828 0 0 0 -5.7481,-5.74804 z m 221.7305,14.83593 a 16.433126,16.433126 0 0 0 -16.4317,16.4336 16.433126,16.433126 0 0 0 9.9453,15.09375 55.031849,55.031849 0 0 0 -41.5917,53.31445 55.031849,55.031849 0 0 0 55.0312,55.03125 A 55.031849,55.031849 0 0 0 1920,725.88086 l 0,-53.07031 a 55.031849,55.031849 0 0 0 -45.7637,-28.35938 16.433126,16.433126 0 0 0 7.0899,-13.49609 16.433126,16.433126 0 0 0 -16.4336,-16.4336 z m -238.0879,75.66993 a 25.987263,25.987263 0 0 0 -25.9883,25.98632 25.987263,25.987263 0 0 0 2.3438,10.70704 30.955416,30.955416 0 0 0 -21.4512,29.41992 30.955416,30.955416 0 0 0 0.025,0.7539 51.592361,51.592361 0 0 0 -25.9317,24.49414 30.955416,30.955416 0 0 0 -26.0683,30.54883 30.955416,30.955416 0 0 0 16.7617,27.47852 51.592361,51.592361 0 0 0 -38.5117,34.1289 110.44586,110.44586 0 0 0 -18.2715,12.22852 66.496819,66.496819 0 0 0 -1.5606,-0.0781 66.496819,66.496819 0 0 0 -55.6132,30.14257 30.955416,30.955416 0 0 0 -14.0157,-3.39062 30.955416,30.955416 0 0 0 -0.7011,0.0254 13.757963,13.757963 0 0 0 -11.9102,-6.9043 13.757963,13.757963 0 0 0 -13.7578,13.75781 13.757963,13.757963 0 0 0 1.3457,5.90625 30.955416,30.955416 0 0 0 -4.5977,9.20899 13.757963,13.757963 0 0 0 -5.9199,-1.35742 13.757963,13.757963 0 0 0 -13.7578,13.75781 13.757963,13.757963 0 0 0 3.0332,8.61133 30.955416,30.955416 0 0 0 -3.416,-0.20313 30.955416,30.955416 0 0 0 -24.8164,12.51367 66.496819,66.496819 0 0 0 -5.6816,-0.28515 66.496819,66.496819 0 0 0 -45.0059,17.63086 18.343952,18.343952 0 0 0 -8.9531,-2.34375 18.343952,18.343952 0 0 0 -18.3457,18.34368 18.343952,18.343952 0 0 0 5.5136,13.086 18.343952,18.343952 0 0 0 -3.9472,2.375 18.343952,18.343952 0 0 0 -13.795,-6.2891 18.343952,18.343952 0 0 0 -18.3437,18.3438 18.343952,18.343952 0 0 0 1.6641,7.582 47.388538,47.388538 0 0 0 -12.8262,15.0996 13.757963,13.757963 0 0 0 -7.1817,-2.0449 13.757963,13.757963 0 0 0 -13.7578,13.7578 13.757963,13.757963 0 0 0 0.1582,2 30.955416,30.955416 0 0 0 -14.2988,-3.5274 30.955416,30.955416 0 0 0 -22.666,9.9297 18.343952,18.343952 0 0 0 -13.6406,-6.1093 18.343952,18.343952 0 0 0 -11.7715,4.2988 66.496819,66.496819 0 0 0 -38.9824,-12.7051 66.496819,66.496819 0 0 0 -16.0782,2.0391 18.343952,18.343952 0 0 0 -15.7148,-8.918 18.343952,18.343952 0 0 0 -18.3438,18.3438 18.343952,18.343952 0 0 0 0.3516,3.5039 18.343952,18.343952 0 0 0 -17.168,-11.9121 18.343952,18.343952 0 0 0 -17.7695,13.8906 18.343952,18.343952 0 0 0 -2.1016,-0.1328 18.343952,18.343952 0 0 0 -13.6445,6.1152 l 215.7402,0 a 30.955416,30.955416 0 0 0 -1.5957,-3.123 13.757963,13.757963 0 0 0 1.2832,0.066 13.757963,13.757963 0 0 0 1.6329,-0.1153 47.388538,47.388538 0 0 0 0.3574,3.1719 l 167.289,0 a 66.496819,66.496819 0 0 0 17.3282,-34.0781 51.592361,51.592361 0 0 0 10.9707,1.2109 51.592361,51.592361 0 0 0 45.8535,-28.0508 110.44586,110.44586 0 0 0 81.959,60.918 l 34.9062,0 a 110.44586,110.44586 0 0 0 92.9512,-108.91794 110.44586,110.44586 0 0 0 -66.0098,-101.03906 51.592361,51.592361 0 0 0 -9.2383,-14.50586 51.592361,51.592361 0 0 0 6.8399,0.51367 51.592361,51.592361 0 0 0 51.5937,-51.5918 51.592361,51.592361 0 0 0 -13.2109,-34.38086 30.955416,30.955416 0 0 0 3.2734,-13.77343 30.955416,30.955416 0 0 0 -5.0683,-16.94922 25.987263,25.987263 0 0 0 14.2402,-23.17774 25.987263,25.987263 0 0 0 -25.9863,-25.98632 z m -73.0899,2.99414 a 16.017694,16.017694 0 0 0 -16.0175,16.01757 16.017694,16.017694 0 0 0 16.0175,16.01758 16.017694,16.017694 0 0 0 16.0176,-16.01758 16.017694,16.017694 0 0 0 -16.0176,-16.01757 z m -72.7304,141.28711 a 7.235158,7.235158 0 0 0 -7.2344,7.23632 7.235158,7.235158 0 0 0 7.2344,7.23438 7.235158,7.235158 0 0 0 7.2344,-7.23438 7.235158,7.235158 0 0 0 -7.2344,-7.23632 z m -148.627,114.03906 a 7.235158,7.235158 0 0 0 -7.2363,7.23437 7.235158,7.235158 0 0 0 7.2363,7.23438 7.235158,7.235158 0 0 0 7.2344,-7.23438 7.235158,7.235158 0 0 0 -7.2344,-7.23437 z M 1136.709,1047.416 a 7.235158,7.235158 0 0 0 -7.2344,7.2344 7.235158,7.235158 0 0 0 7.2344,7.2363 7.235158,7.235158 0 0 0 7.2344,-7.2363 7.235158,7.235158 0 0 0 -7.2344,-7.2344 z m -83.5059,27.5508 a 18.343952,18.343952 0 0 0 1.1602,2.4805 66.496819,66.496819 0 0 0 -0.8125,0.8711 18.343952,18.343952 0 0 0 -0.3477,-3.3516 z"
       style="opacity:1;fill:#e2d3cb;fill-opacity:1;stroke:none;stroke-width:50;stroke-linecap:round;stroke-linejoin:round;stroke-miterlimit:4;stroke-dasharray:none;stroke-dashoffset:0;stroke-opacity:1"
       inkscape:connector-curvature="0" />
    <path
       style="opacity:1;fill:#ffffff;fill-opacity:1;stroke:none;stroke-width:50;stroke-linecap:round;stroke-linejoin:round;stroke-miterlimit:4;stroke-dasharray:none;stroke-dashoffset:0;stroke-opacity:1"
       d="M 751.03125 237.38672 L 751.03125 279.28516 L 750.92773 279.28516 L 750.92773 287.51562 A 23.916006 23.916006 0 0 0 748.73242 297.44531 A 23.916006 23.916006 0 0 0 748.7793 298.78125 A 34.99881 34.99881 0 0 0 737.78906 302.39844 L 737.78906 239.9668 L 713.19727 239.9668 L 713.19727 335.04883 A 49.992897 49.992897 0 0 0 708.01758 356.97656 A 49.992897 49.992897 0 0 0 727.09375 396.25 A 34.432549 34.432549 0 0 0 724.54492 401.98047 A 31.752249 31.752249 0 0 0 721.66406 401.83398 A 31.752249 31.752249 0 0 0 717.31445 402.16992 A 10.11168 10.11168 0 0 0 707.36133 393.83008 A 10.11168 10.11168 0 0 0 697.25 403.94141 A 10.11168 10.11168 0 0 0 699.77344 410.60547 A 31.752249 31.752249 0 0 0 689.91211 433.58789 A 31.752249 31.752249 0 0 0 690.14453 437.10742 A 34.432549 34.432549 0 0 0 685.90039 453.66406 A 34.432549 34.432549 0 0 0 685.91797 454.22852 A 10.922374 10.922374 0 0 0 679.41406 464.20312 A 10.922374 10.922374 0 0 0 680.67188 469.28125 A 49.992897 49.992897 0 0 0 670.72266 499.11914 A 49.992897 49.992897 0 0 0 676.55078 522.47656 A 19.05135 19.05135 0 0 0 671.66797 521.81836 A 19.05135 19.05135 0 0 0 655.48828 530.85938 A 25.987261 25.987261 0 0 0 650.40625 530.33203 A 25.987261 25.987261 0 0 0 624.41797 556.31836 A 25.987261 25.987261 0 0 0 625.63086 564.13477 A 15.808566 15.808566 0 0 0 624.24805 568.26953 A 15.808566 15.808566 0 0 0 615.32617 582.48438 A 15.808566 15.808566 0 0 0 615.89648 586.68164 A 32.968288 32.968288 0 0 0 599.65234 615.04883 A 32.968288 32.968288 0 0 0 600.06836 619.82812 A 15.808566 15.808566 0 0 0 599.17578 623.94922 A 13.781824 13.781824 0 0 0 594.02344 628.66992 A 32.968288 32.968288 0 0 0 591.81445 628.55859 A 32.968288 32.968288 0 0 0 574.15625 633.69727 A 13.781824 13.781824 0 0 0 565.33008 636.99219 A 27.563652 27.563652 0 0 0 541.82227 664.23047 A 27.563652 27.563652 0 0 0 542.80273 671.5 A 13.781824 13.781824 0 0 0 532.89844 679.14062 A 17.565071 17.565071 0 0 0 527.50195 678.28125 A 17.565071 17.565071 0 0 0 509.93555 695.84766 A 17.565071 17.565071 0 0 0 524.56055 713.14453 A 49.992897 49.992897 0 0 0 517.23047 739.08398 A 49.992897 49.992897 0 0 0 522.53516 761.26172 A 15.808566 15.808566 0 0 0 520.20508 769.48633 A 15.808566 15.808566 0 0 0 520.77734 773.70898 A 80.033638 80.033638 0 0 0 511.86328 780.28906 A 15.808566 15.808566 0 0 0 504.66797 778.53906 A 15.808566 15.808566 0 0 0 488.85938 794.3457 A 15.808566 15.808566 0 0 0 492.42578 804.33594 A 80.033638 80.033638 0 0 0 488.05273 814.22461 A 20.537624 20.537624 0 0 0 470.75195 804.75 A 20.537624 20.537624 0 0 0 463.85156 805.9668 A 15.808566 15.808566 0 0 0 464.53516 801.37305 A 15.808566 15.808566 0 0 0 448.72656 785.56445 A 15.808566 15.808566 0 0 0 432.91797 801.37305 A 15.808566 15.808566 0 0 0 448.72656 817.18164 A 15.808566 15.808566 0 0 0 452.07227 816.80469 A 20.537624 20.537624 0 0 0 451.88086 817.19336 A 69.449593 69.449593 0 0 0 401.65234 838.98242 A 15.403218 15.403218 0 0 0 399.41016 838.80078 A 15.403218 15.403218 0 0 0 384.49023 850.45312 A 15.403218 15.403218 0 0 0 383.44336 851.14062 A 15.403218 15.403218 0 0 0 378.06445 850.15039 A 15.403218 15.403218 0 0 0 374.46875 850.59375 A 5.9542217 5.9542217 0 0 0 369.08008 847.16016 A 5.9542217 5.9542217 0 0 0 363.12695 853.11328 A 5.9542217 5.9542217 0 0 0 364.99414 857.43555 A 15.403218 15.403218 0 0 0 362.66016 865.55273 A 15.403218 15.403218 0 0 0 362.69141 866.4668 A 15.403218 15.403218 0 0 0 359.82031 870.09961 A 25.987261 25.987261 0 0 0 348.30859 877 A 15.403218 15.403218 0 0 0 342.18945 880.48633 A 80.033638 80.033638 0 0 0 338.9082 881.00781 A 5.9542217 5.9542217 0 0 0 333.15625 876.58594 A 5.9542217 5.9542217 0 0 0 327.20312 882.54102 A 5.9542217 5.9542217 0 0 0 327.24805 883.21289 A 20.537624 20.537624 0 0 0 311.04492 875.28125 A 20.537624 20.537624 0 0 0 290.50586 895.81836 A 20.537624 20.537624 0 0 0 293.99609 907.24219 A 80.033638 80.033638 0 0 0 287.42578 915.9043 A 15.403218 15.403218 0 0 0 283.41797 920.70898 A 25.987261 25.987261 0 0 0 262.91211 936.70312 A 15.403218 15.403218 0 0 0 257.80859 935.8125 A 15.403218 15.403218 0 0 0 250.11328 937.89648 A 25.987261 25.987261 0 0 0 242.12305 936.62305 A 25.987261 25.987261 0 0 0 240.88086 936.68555 A 5.9542217 5.9542217 0 0 0 240.89648 936.42578 A 5.9542217 5.9542217 0 0 0 234.94141 930.47266 A 5.9542217 5.9542217 0 0 0 228.98828 936.42578 A 5.9542217 5.9542217 0 0 0 229.94922 939.66797 A 25.987261 25.987261 0 0 0 221.47461 946.89258 L 918.30469 946.89258 L 918.30469 603.44727 A 25.987261 25.987261 0 0 0 913.37695 600.11523 A 80.033638 80.033638 0 0 0 912.32227 597.29492 A 11.926967 11.926967 0 0 0 918.30469 590.50195 L 918.30469 582.71875 A 11.926967 11.926967 0 0 0 909.58008 574.95898 A 13.646712 13.646712 0 0 0 909.60742 574.37695 A 13.646712 13.646712 0 0 0 909.46094 572.48047 A 9.8250561 9.8250561 0 0 0 914.57617 563.86914 A 9.8250561 9.8250561 0 0 0 904.75195 554.04297 A 9.8250561 9.8250561 0 0 0 895.44336 560.75 A 13.646712 13.646712 0 0 0 894.73633 560.79688 A 25.987261 25.987261 0 0 0 898.43164 547.5293 A 25.987261 25.987261 0 0 0 882.09766 523.42383 A 49.992897 49.992897 0 0 0 863.59766 490.77344 A 49.992897 49.992897 0 0 0 867.45117 471.55469 A 49.992897 49.992897 0 0 0 838.1582 426.11719 A 31.752249 31.752249 0 0 0 840.76172 419.76953 A 9.011549 9.011549 0 0 0 846.62695 411.33008 A 9.011549 9.011549 0 0 0 841.02734 402.99609 A 31.752249 31.752249 0 0 0 839.98438 399.65625 A 10.40393 10.40393 0 0 0 842.58984 392.78125 A 10.40393 10.40393 0 0 0 832.18555 382.37891 A 10.40393 10.40393 0 0 0 828.5625 383.03711 A 9.011549 9.011549 0 0 0 830.95703 376.93555 A 9.011549 9.011549 0 0 0 827.10156 369.56836 L 827.10156 349.75977 L 826.96094 349.75977 L 826.96094 239.9668 L 802.37109 239.9668 L 802.37109 332.92773 A 34.99881 34.99881 0 0 0 801.68555 332.69336 A 49.992897 49.992897 0 0 0 787.15234 316.4375 A 23.916006 23.916006 0 0 0 796.5625 297.44531 A 23.916006 23.916006 0 0 0 789.12891 280.13086 L 789.12891 237.38672 L 776.69922 237.38672 L 776.69922 273.875 A 23.916006 23.916006 0 0 0 772.64648 273.5293 A 23.916006 23.916006 0 0 0 763.45898 275.37305 L 763.45898 237.38672 L 751.03125 237.38672 z M 677.0957 423.01562 A 10.11168 10.11168 0 0 0 666.98438 433.12695 A 10.11168 10.11168 0 0 0 677.0957 443.23828 A 10.11168 10.11168 0 0 0 687.20703 433.12695 A 10.11168 10.11168 0 0 0 677.0957 423.01562 z M 882.4707 443.55273 A 10.11168 10.11168 0 0 0 872.35938 453.66406 A 10.11168 10.11168 0 0 0 882.4707 463.77539 A 10.11168 10.11168 0 0 0 892.58203 453.66406 A 10.11168 10.11168 0 0 0 882.4707 443.55273 z M 651.94336 499.6582 A 13.37648 13.37648 0 0 0 638.56641 513.03516 A 13.37648 13.37648 0 0 0 651.94336 526.41211 A 13.37648 13.37648 0 0 0 665.32031 513.03516 A 13.37648 13.37648 0 0 0 651.94336 499.6582 z M 909.14844 524.23438 A 11.926967 11.926967 0 0 0 897.2207 536.16211 A 11.926967 11.926967 0 0 0 909.14844 548.08789 A 11.926967 11.926967 0 0 0 918.30664 543.78516 L 918.30664 528.52539 A 11.926967 11.926967 0 0 0 909.14844 524.23438 z M 600.33008 552.625 A 15.808566 15.808566 0 0 0 584.52148 568.43359 A 15.808566 15.808566 0 0 0 600.33008 584.24219 A 15.808566 15.808566 0 0 0 616.13867 568.43359 A 15.808566 15.808566 0 0 0 600.33008 552.625 z M 558.36914 689.48047 A 27.563652 27.563652 0 0 0 559.08594 689.77539 A 49.992897 49.992897 0 0 0 558.20312 689.9375 A 13.781824 13.781824 0 0 0 558.36914 689.48047 z M 500.88477 734.75977 A 15.808566 15.808566 0 0 0 485.07617 750.56836 A 15.808566 15.808566 0 0 0 500.88477 766.37695 A 15.808566 15.808566 0 0 0 516.69336 750.56836 A 15.808566 15.808566 0 0 0 500.88477 734.75977 z M 233.79492 907.16016 A 10.540209 10.540209 0 0 0 223.25586 917.70117 A 10.540209 10.540209 0 0 0 233.79492 928.24023 A 10.540209 10.540209 0 0 0 244.33594 917.70117 A 10.540209 10.540209 0 0 0 233.79492 907.16016 z M 163.85938 931.61914 A 18.183521 18.183521 0 0 0 145.91992 946.89258 L 181.78711 946.89258 A 18.183521 18.183521 0 0 0 163.85938 931.61914 z "
       transform="translate(1681.1854,133.10742)"
       id="path6532" />
  </g>
  <g
     id="g6903"
     transform="translate(-1155.9382,-133.10742)">
    <path
       sodipodi:nodetypes="csccsc"
       inkscape:connector-curvature="0"
       id="rect6870"
       d="m 1925.5971,133.10742 c -16.3543,6.713 -31.4824,34.30431 -31.4824,51.88477 l 0,119.60262 62.9648,0 0,-119.60262 c 0,-17.58046 -15.1281,-45.17177 -31.4824,-51.88477 z"
       style="opacity:1;fill:#b71c1c;fill-opacity:1;stroke:none;stroke-width:0.60000002;stroke-linecap:round;stroke-linejoin:round;stroke-miterlimit:4;stroke-dasharray:none;stroke-dashoffset:0;stroke-opacity:1" />
    <path
       id="rect6878"
       d="m 1899.5156,163.18555 c -0.8741,1.97149 -1.6565,3.95352 -2.3379,5.92187 l 56.8379,0 c -0.6813,-1.96829 -1.4637,-3.95045 -2.3379,-5.92187 l -52.1621,0 z"
       style="opacity:0.61599983;fill:#f6e9e0;fill-opacity:1;stroke:none;stroke-width:0.60000002;stroke-linecap:round;stroke-linejoin:round;stroke-miterlimit:4;stroke-dasharray:none;stroke-dashoffset:0;stroke-opacity:1"
       inkscape:connector-curvature="0" />
    <path
       id="rect6880"
       d="m 1905.498,152.10156 c -0.5268,0.81713 -1.0421,1.64461 -1.541,2.48438 l 43.2793,0 c -0.4989,-0.83984 -1.0141,-1.66719 -1.541,-2.48438 l -40.1973,0 z"
       style="opacity:0.61599983;fill:#6e1a23;fill-opacity:1;stroke:none;stroke-width:0.60000002;stroke-linecap:round;stroke-linejoin:round;stroke-miterlimit:4;stroke-dasharray:none;stroke-dashoffset:0;stroke-opacity:1"
       inkscape:connector-curvature="0" />
    <path
       id="rect6882"
       d="m 1925.5977,133.10742 c -3.6018,1.47845 -7.1442,3.97265 -10.4786,7.14649 l 20.9571,0 c -3.3347,-3.17427 -6.8764,-5.6679 -10.4785,-7.14649 z"
       style="opacity:0.61599983;fill:#6e1a23;fill-opacity:1;stroke:none;stroke-width:0.60000002;stroke-linecap:round;stroke-linejoin:round;stroke-miterlimit:4;stroke-dasharray:none;stroke-dashoffset:0;stroke-opacity:1"
       inkscape:connector-curvature="0" />
    <path
       id="rect6884"
       d="m 1894.1152,209.04492 0,2.86524 62.9649,0 0,-2.86524 -62.9649,0 z"
       style="opacity:0.61599983;fill:#f6e9e0;fill-opacity:1;stroke:none;stroke-width:0.60000002;stroke-linecap:round;stroke-linejoin:round;stroke-miterlimit:4;stroke-dasharray:none;stroke-dashoffset:0;stroke-opacity:1"
       inkscape:connector-curvature="0" />
    <path
       id="rect6886"
       d="m 1894.1152,212.91406 0,0.90821 62.9649,0 0,-0.90821 -62.9649,0 z"
       style="opacity:0.61599983;fill:#f6e9e0;fill-opacity:1;stroke:none;stroke-width:0.60000002;stroke-linecap:round;stroke-linejoin:round;stroke-miterlimit:4;stroke-dasharray:none;stroke-dashoffset:0;stroke-opacity:1"
       inkscape:connector-curvature="0" />
  </g>
  <g
     id="g6848"
     transform="translate(-1358.6376,-132.29672)">
    <path
       id="rect6676"
       d="m 2084.2608,188.73436 c -9.5453,9.33333 -12.4199,18.08244 -12.4199,28 l 0,120.71875 24.8418,0 0,-120.71875 c 0,-9.91756 -2.8766,-18.66667 -12.4219,-28 z"
       style="opacity:1;fill:#fffffb;fill-opacity:1;stroke:none;stroke-width:0.60000002;stroke-linecap:round;stroke-linejoin:round;stroke-miterlimit:4;stroke-dasharray:none;stroke-dashoffset:0;stroke-opacity:1"
       inkscape:connector-curvature="0" />
    <path
       id="path6720"
       d="m 2084.2617,188.73438 0,148.71874 10.5625,0 1.8594,-5.24804 0,-115.4707 c 0,-9.91757 -2.8766,-18.66668 -12.4219,-28 z"
       style="fill:#f6e9e0;fill-opacity:1;fill-rule:evenodd;stroke:none;stroke-width:1px;stroke-linecap:butt;stroke-linejoin:miter;stroke-opacity:1"
       inkscape:connector-curvature="0" />
    <path
       style="opacity:1;fill:#5b4047;fill-opacity:1;stroke:#5b4047;stroke-width:0.1;stroke-linecap:round;stroke-linejoin:round;stroke-miterlimit:4;stroke-dasharray:none;stroke-dashoffset:0;stroke-opacity:1"
       d="m 2084.2539,188.67969 a 0.05342523,0.05342523 0 0 0 0,0.002 0.05342523,0.05342523 0 0 0 -0.025,0.0137 c -1.6669,1.6299 -3.1195,3.24175 -4.4004,4.84571 a 0.05342523,0.05342523 0 0 0 0.041,0.0859 l 8.793,0 a 0.05342523,0.05342523 0 0 0 0.041,-0.0859 c -1.2809,-1.60395 -2.7334,-3.21581 -4.4004,-4.84571 a 0.05342523,0.05342523 0 0 0 -0.039,-0.0156 0.05342523,0.05342523 0 0 0 -0.01,0 z m -4.7637,5.29492 a 0.05342523,0.05342523 0 0 0 -0.033,0.0195 c -0.1081,0.13901 -0.2015,0.27633 -0.3047,0.41211 a 0.05342523,0.05342523 0 0 0 0.043,0.0859 l 10.1328,0 a 0.05342523,0.05342523 0 0 0 0.043,-0.0859 c -0.103,-0.13571 -0.1966,-0.27317 -0.3047,-0.41211 a 0.05342523,0.05342523 0 0 0 -0.043,-0.0195 l -9.5234,0 a 0.05342523,0.05342523 0 0 0 -0.01,0 z m -1.9843,2.79492 a 0.05342523,0.05342523 0 0 0 -0.035,0.0234 c -0.5165,0.79142 -1.0033,1.58275 -1.4395,2.375 a 0.05342523,0.05342523 0 0 0 0.047,0.0781 l 16.3672,0 a 0.05342523,0.05342523 0 0 0 0.047,-0.0781 c -0.4362,-0.79218 -0.9209,-1.58352 -1.4375,-2.375 a 0.05342523,0.05342523 0 0 0 -0.045,-0.0234 l -13.4942,0 a 0.05342523,0.05342523 0 0 0 -0.01,0 z m -5.6621,19.34766 a 0.05342523,0.05342523 0 0 0 -0.043,0.0527 c 0,0.18321 -0.012,0.36619 -0.012,0.55469 a 0.05342523,0.05342523 0 0 0 0.053,0.0527 l 24.8418,0 a 0.05342523,0.05342523 0 0 0 0.053,-0.0527 c 0,-0.18812 -0.01,-0.37072 -0.012,-0.55469 a 0.05342523,0.05342523 0 0 0 -0.053,-0.0527 l -24.8184,0 a 0.05342523,0.05342523 0 0 0 -0.01,0 z m -0.012,1.05078 a 0.05342523,0.05342523 0 0 0 -0.043,0.0527 l 0,2.3711 a 0.05342523,0.05342523 0 0 0 0.053,0.0527 l 24.8418,0 a 0.05342523,0.05342523 0 0 0 0.053,-0.0527 l 0,-2.3711 a 0.05342523,0.05342523 0 0 0 -0.053,-0.0527 l -24.8418,0 a 0.05342523,0.05342523 0 0 0 -0.01,0 z m 0,2.86523 a 0.05342523,0.05342523 0 0 0 -0.043,0.0527 l 0,0.55664 a 0.05342523,0.05342523 0 0 0 0.053,0.0527 l 24.8418,0 a 0.05342523,0.05342523 0 0 0 0.053,-0.0527 l 0,-0.55664 a 0.05342523,0.05342523 0 0 0 -0.053,-0.0527 l -24.8418,0 a 0.05342523,0.05342523 0 0 0 -0.01,0 z m 0,47.80274 a 0.05342523,0.05342523 0 0 0 -0.043,0.0527 l 0,14.53125 a 0.05342523,0.05342523 0 0 0 0.053,0.0527 l 24.8418,0 a 0.05342523,0.05342523 0 0 0 0.053,-0.0527 l 0,-14.53125 a 0.05342523,0.05342523 0 0 0 -0.053,-0.0527 l -24.8418,0 a 0.05342523,0.05342523 0 0 0 -0.01,0 z m 0,19.32226 a 0.05342523,0.05342523 0 0 0 -0.043,0.0527 l 0,4.26172 a 0.05342523,0.05342523 0 0 0 0.053,0.0527 l 24.8418,0 a 0.05342523,0.05342523 0 0 0 0.053,-0.0527 l 0,-4.26172 a 0.05342523,0.05342523 0 0 0 -0.053,-0.0527 l -24.8418,0 a 0.05342523,0.05342523 0 0 0 -0.01,0 z"
       id="path6708"
       inkscape:connector-curvature="0" />
    <path
       inkscape:connector-curvature="0"
       id="path6601"
       d="m 2080.8976,364.42465 -6.9239,0.69081 -4.505,5.99922 14.6465,0 0.2971,0 14.643,0 -4.7602,-6.01216 -4.2285,-2.21285 -5.8027,-0.19565 z"
       style="fill:#fff7ea;fill-opacity:1;fill-rule:evenodd;stroke:none;stroke-width:1px;stroke-linecap:butt;stroke-linejoin:miter;stroke-opacity:1"
       sodipodi:nodetypes="cccccccccc" />
    <path
       style="opacity:1;fill:#b71c1c;fill-opacity:1;stroke:none;stroke-width:50;stroke-linecap:round;stroke-linejoin:round;stroke-miterlimit:4;stroke-dasharray:none;stroke-dashoffset:0;stroke-opacity:1"
       d="m 2068.4835,336.76618 0,24.70234 8.3669,0 0.6117,0 0,0.0373 -3.532,3.6105 20.4146,0 -3.508,-3.58466 0,-0.0632 9.2034,0 0,-24.70234 -31.5566,0 z m 0.9711,34.32267 0,1.56417 29.6144,0 0,-1.56417 -29.6144,0 z"
       id="rect6563"
       inkscape:connector-curvature="0" />
    <path
       style="opacity:1;fill:#6e1a23;fill-opacity:1;stroke:none;stroke-width:50;stroke-linecap:round;stroke-linejoin:round;stroke-miterlimit:4;stroke-dasharray:none;stroke-dashoffset:0;stroke-opacity:1"
       d="m 2068.4835,349.98841 0,5.61663 31.5566,0 0,-5.61663 -31.5566,0 z m 8.9855,11.51167 -1.3062,1.33458 15.9492,0 -1.3062,-1.33458 -13.3368,0 z"
       id="rect6576"
       inkscape:connector-curvature="0" />
  </g>
  <path
     style="opacity:1;fill:#fff7ea;fill-opacity:1;fill-rule:evenodd;stroke:none;stroke-width:1px;stroke-linecap:butt;stroke-linejoin:miter;stroke-opacity:1"
     d="m 769.6593,55.30078 c -6.356,0 -21.0196,19.35008 -21.0196,60 -10.831,2.90217 -4.8376,29.80994 -8.9121,40.19922 -3.8603,9.84299 -9.6402,20.64286 -14.8769,24.63281 -12.376,9.42956 -24.4194,13.62283 -22.4688,36.75977 l 64.3164,9.92578 0,19.18164 c 0,1.64083 1.3201,2.96289 2.961,2.96289 1.6408,0 2.9629,-1.32206 2.9629,-2.96289 l 0,-19.18164 64.3144,-9.92578 c 1.9506,-23.13694 -10.0927,-27.33021 -22.4687,-36.75977 -5.2367,-3.98995 -11.0167,-14.78982 -14.877,-24.63281 -4.0745,-10.38928 1.9189,-37.29705 -8.9121,-40.19922 0,-40.64992 -14.6635,-60 -21.0195,-60 z"
     id="path6526"
     inkscape:connector-curvature="0" />
  <path
     style="opacity:1;fill:#f6e9e0;fill-opacity:1;stroke:none;stroke-width:50;stroke-linecap:round;stroke-linejoin:round;stroke-miterlimit:4;stroke-dasharray:none;stroke-dashoffset:0;stroke-opacity:1"
     d="m 769.6593,55.30078 c -6.356,0 -21.0196,19.35008 -21.0196,60 -0.016,0.004 -0.031,0.0112 -0.047,0.0156 l 0,108.70703 18.1054,2.79492 0,9.36328 5.9239,0 0,-9.36328 18.1035,-2.79492 0,-108.70703 c -0.016,-0.004 -0.031,-0.0113 -0.047,-0.0156 0,-40.64992 -14.6635,-60 -21.0195,-60 z"
     id="rect6638"
     inkscape:connector-curvature="0" />
  <path
     style="opacity:1;fill:#dfccc6;fill-opacity:1;stroke:none;stroke-width:50;stroke-linecap:round;stroke-linejoin:round;stroke-miterlimit:4;stroke-dasharray:none;stroke-dashoffset:0;stroke-opacity:1"
     d="m 769.6591,55.30078 c 6.356,0 21.0196,19.35008 21.0196,60 0.016,0.004 0.031,0.0112 0.047,0.0156 l 0,108.70703 -18.1054,2.79492 0,9.36328 -2.961,0 0,-180.88086 z"
     id="path6643"
     inkscape:connector-curvature="0" />
  <path
     style="opacity:1;fill:#634148;fill-opacity:1;stroke:none;stroke-width:50;stroke-linecap:round;stroke-linejoin:round;stroke-miterlimit:4;stroke-dasharray:none;stroke-dashoffset:0;stroke-opacity:1"
     d="m 769.6491,75.7461 a 24.554142,33.248409 0 0 0 -13.2188,5.27148 l 2.8907,2.92969 a 21.210194,28.720417 0 0 1 10.3281,-3.67383 21.210194,28.720417 0 0 1 10.3418,3.66016 l 2.8984,-2.9375 a 24.554142,33.248409 0 0 0 -13.2402,-5.25 z"
     id="path6541"
     inkscape:connector-curvature="0" />
  <path
     style="fill:#634148;fill-opacity:1;fill-rule:evenodd;stroke:none;stroke-width:1px;stroke-linecap:butt;stroke-linejoin:miter;stroke-opacity:1"
     d="m 768.5973,87.68946 -1.625,17.10156 2.3164,0 0.7422,0 2.3164,0 -1.625,-17.10156 -0.5957,0 -0.9336,0 -0.5957,0 z"
     id="path6556"
     inkscape:connector-curvature="0" />
  <g
     transform="matrix(-1,0,0,1,2610.0157,-133.10742)"
     id="g6623">
    <path
       sodipodi:nodetypes="cccccccccc"
       style="fill:#fff7ea;fill-opacity:1;fill-rule:evenodd;stroke:none;stroke-width:1px;stroke-linecap:butt;stroke-linejoin:miter;stroke-opacity:1"
       d="m 1826.1737,365.14258 -3.913,0.47011 -2.546,4.08262 8.2774,0 0.1679,0 8.2754,0 -2.6902,-4.09142 -2.3897,-1.5059 -3.2794,-0.13315 z"
       id="path6625"
       inkscape:connector-curvature="0" />
    <path
       style="opacity:1;fill:#b71c1c;fill-opacity:1;stroke:none;stroke-width:50;stroke-linecap:round;stroke-linejoin:round;stroke-miterlimit:4;stroke-dasharray:none;stroke-dashoffset:0;stroke-opacity:1"
       d="m 1821.455,327.5957 c -4.6147,0 -8.3856,3.47133 -8.8633,7.95508 -0.034,0.31652 -0.055,0.63713 -0.055,0.96289 l 0,0.14649 -1.3047,26.4707 12.6543,0 0.3457,0 0,0.0254 -1.9961,2.45703 11.5371,0 -1.9824,-2.43945 0,-0.043 5.6074,0 0,-15.26758 0,-8.10742 0,-12.16016 -14.8613,0 0,0.0703 c -0.3553,-0.0427 -0.7149,-0.0703 -1.082,-0.0703 z m -1.7481,42.08203 0,1.06446 16.7364,0 0,-1.06446 -16.7364,0 z"
       id="path6627"
       inkscape:connector-curvature="0" />
    <path
       style="opacity:1;fill:#6e1a23;fill-opacity:1;stroke:none;stroke-width:50;stroke-linecap:round;stroke-linejoin:round;stroke-miterlimit:4;stroke-dasharray:none;stroke-dashoffset:0;stroke-opacity:1"
       d="m 1811.6073,355.31836 -0.1875,3.82226 25.9785,0 0,-3.82226 -25.791,0 z m 12.6289,7.83398 -0.7383,0.90821 9.0137,0 -0.7383,-0.90821 -7.5371,0 z"
       id="path6629"
       inkscape:connector-curvature="0" />
  </g>
  <g
     id="g6656"
     transform="matrix(0.96887401,0,0,1.0001495,-948.09802,-133.15036)"
     style="opacity:0.33780027">
    <path
       inkscape:connector-curvature="0"
       id="path6648"
       d="m 1794.4929,255.60869 -43.102,0"
       style="fill:none;fill-opacity:1;fill-rule:evenodd;stroke:#745259;stroke-width:0.60000002;stroke-linecap:round;stroke-linejoin:miter;stroke-miterlimit:4;stroke-dasharray:none;stroke-opacity:1" />
    <path
       style="fill:none;fill-opacity:1;fill-rule:evenodd;stroke:#745259;stroke-width:0.60000002;stroke-linecap:round;stroke-linejoin:miter;stroke-miterlimit:4;stroke-dasharray:none;stroke-opacity:1"
       d="m 1794.4929,275.87608 -43.102,0"
       id="path6650"
       inkscape:connector-curvature="0" />
    <path
       inkscape:connector-curvature="0"
       id="path6652"
       d="m 1794.4929,296.95417 -43.102,0"
       style="fill:none;fill-opacity:1;fill-rule:evenodd;stroke:#745259;stroke-width:0.60000002;stroke-linecap:round;stroke-linejoin:miter;stroke-miterlimit:4;stroke-dasharray:none;stroke-opacity:1" />
    <path
       style="fill:none;fill-opacity:1;fill-rule:evenodd;stroke:#745259;stroke-width:0.60000002;stroke-linecap:round;stroke-linejoin:miter;stroke-miterlimit:4;stroke-dasharray:none;stroke-opacity:1"
       d="m 1794.4929,318.70784 -43.102,0"
       id="path6654"
       inkscape:connector-curvature="0" />
  </g>
  <path
     style="opacity:1;fill:#634148;fill-opacity:1;stroke:none;stroke-width:0.60000002;stroke-linecap:round;stroke-linejoin:round;stroke-miterlimit:4;stroke-dasharray:none;stroke-dashoffset:0;stroke-opacity:1"
     d="m 769.6593,55.21094 c -1.5365,0 -3.5309,1.12298 -5.6836,3.35352 a 0.04310522,0.04310522 0 0 0 0,0.002 0.04310522,0.04310522 0 0 0 0,0.0547 0.04310522,0.04310522 0 0 0 0,0.004 0.04310522,0.04310522 0 0 0 0.029,0.0117 l 11.3047,0 a 0.04310522,0.04310522 0 0 0 0.02,-0.006 0.04310522,0.04310522 0 0 0 0,-0.002 0.04310522,0.04310522 0 0 0 0.01,-0.008 0.04310522,0.04310522 0 0 0 0,-0.0547 0.04310522,0.04310522 0 0 0 0,-0.002 c -2.1527,-2.23054 -4.1472,-3.35352 -5.6836,-3.35352 z"
     id="path6671"
     inkscape:connector-curvature="0" />
  <g
     id="g6793"
     transform="translate(-1070.7162,-133.10742)">
    <path
       inkscape:connector-curvature="0"
       id="path6795"
       d="m 1826.1737,365.14258 -3.913,0.47011 -2.546,4.08262 8.2774,0 0.1679,0 8.2754,0 -2.6902,-4.09142 -2.3897,-1.5059 -3.2794,-0.13315 z"
       style="fill:#fff7ea;fill-opacity:1;fill-rule:evenodd;stroke:none;stroke-width:1px;stroke-linecap:butt;stroke-linejoin:miter;stroke-opacity:1"
       sodipodi:nodetypes="cccccccccc" />
    <path
       inkscape:connector-curvature="0"
       id="path6797"
       d="m 1821.455,327.5957 c -4.6147,0 -8.3856,3.47133 -8.8633,7.95508 -0.034,0.31652 -0.055,0.63713 -0.055,0.96289 l 0,0.14649 -1.3047,26.4707 12.6543,0 0.3457,0 0,0.0254 -1.9961,2.45703 11.5371,0 -1.9824,-2.43945 0,-0.043 5.6074,0 0,-15.26758 0,-8.10742 0,-12.16016 -14.8613,0 0,0.0703 c -0.3553,-0.0427 -0.7149,-0.0703 -1.082,-0.0703 z m -1.7481,42.08203 0,1.06446 16.7364,0 0,-1.06446 -16.7364,0 z"
       style="opacity:1;fill:#b71c1c;fill-opacity:1;stroke:none;stroke-width:50;stroke-linecap:round;stroke-linejoin:round;stroke-miterlimit:4;stroke-dasharray:none;stroke-dashoffset:0;stroke-opacity:1" />
    <path
       inkscape:connector-curvature="0"
       id="path6799"
       d="m 1811.6073,355.31836 -0.1875,3.82226 25.9785,0 0,-3.82226 -25.791,0 z m 12.6289,7.83398 -0.7383,0.90821 9.0137,0 -0.7383,-0.90821 -7.5371,0 z"
       style="opacity:1;fill:#6e1a23;fill-opacity:1;stroke:none;stroke-width:50;stroke-linecap:round;stroke-linejoin:round;stroke-miterlimit:4;stroke-dasharray:none;stroke-dashoffset:0;stroke-opacity:1" />
  </g>
  <rect
     style="opacity:1;fill:#b71c1c;fill-opacity:1;stroke:#5b4047;stroke-width:0.1;stroke-linecap:round;stroke-linejoin:round;stroke-miterlimit:4;stroke-dasharray:none;stroke-dashoffset:0;stroke-opacity:1"
     id="rect7316"
     width="43.777565"
     height="33.508755"
     x="470.47372"
     y="-56.208202" />
  <rect
     y="-56.208202"
     x="550.46234"
     height="33.508755"
     width="43.777565"
     id="rect7342"
     style="opacity:1;fill:#ae5a65;fill-opacity:1;stroke:#5b4047;stroke-width:0.1;stroke-linecap:round;stroke-linejoin:round;stroke-miterlimit:4;stroke-dasharray:none;stroke-dashoffset:0;stroke-opacity:1" />
</svg>
